<svg width="15" height="19" viewBox="0 0 15 19" fill="none" xmlns="http://www.w3.org/2000/svg">
<path d="M4.28195 13.9502V14.5931C4.28195 14.6801 4.24847 14.7571 4.1815 14.8241C4.12123 14.8843 4.04757 14.9145 3.96052 14.9145H3.31766C3.23061 14.9145 3.1536 14.8843 3.08664 14.8241C3.02637 14.7571 2.99623 14.6801 2.99623 14.5931V13.9502C2.99623 13.8631 3.02637 13.7895 3.08664 13.7292C3.1536 13.6622 3.23061 13.6288 3.31766 13.6288H3.96052C4.04757 13.6288 4.12123 13.6622 4.1815 13.7292C4.24847 13.7895 4.28195 13.8631 4.28195 13.9502ZM4.28195 11.3788V12.0216C4.28195 12.1087 4.24847 12.1857 4.1815 12.2527C4.12123 12.3129 4.04757 12.3431 3.96052 12.3431H3.31766C3.23061 12.3431 3.1536 12.3129 3.08664 12.2527C3.02637 12.1857 2.99623 12.1087 2.99623 12.0216V11.3788C2.99623 11.2917 3.02637 11.2181 3.08664 11.1578C3.1536 11.0908 3.23061 11.0573 3.31766 11.0573H3.96052C4.04757 11.0573 4.12123 11.0908 4.1815 11.1578C4.24847 11.2181 4.28195 11.2917 4.28195 11.3788ZM6.85338 11.3788V12.0216C6.85338 12.1087 6.81989 12.1857 6.75293 12.2527C6.69266 12.3129 6.619 12.3431 6.53195 12.3431H5.88909C5.80204 12.3431 5.72503 12.3129 5.65806 12.2527C5.5978 12.1857 5.56766 12.1087 5.56766 12.0216V11.3788C5.56766 11.2917 5.5978 11.2181 5.65806 11.1578C5.72503 11.0908 5.80204 11.0573 5.88909 11.0573H6.53195C6.619 11.0573 6.69266 11.0908 6.75293 11.1578C6.81989 11.2181 6.85338 11.2917 6.85338 11.3788ZM4.28195 8.80734V9.45019C4.28195 9.53725 4.24847 9.61426 4.1815 9.68122C4.12123 9.74149 4.04757 9.77162 3.96052 9.77162H3.31766C3.23061 9.77162 3.1536 9.74149 3.08664 9.68122C3.02637 9.61426 2.99623 9.53725 2.99623 9.45019V8.80734C2.99623 8.72028 3.02637 8.64662 3.08664 8.58636C3.1536 8.51939 3.23061 8.48591 3.31766 8.48591H3.96052C4.04757 8.48591 4.12123 8.51939 4.1815 8.58636C4.24847 8.64662 4.28195 8.72028 4.28195 8.80734ZM11.9962 13.9502V14.5931C11.9962 14.6801 11.9628 14.7571 11.8958 14.8241C11.8355 14.8843 11.7619 14.9145 11.6748 14.9145H11.0319C10.9449 14.9145 10.8679 14.8843 10.8009 14.8241C10.7407 14.7571 10.7105 14.6801 10.7105 14.5931V13.9502C10.7105 13.8631 10.7407 13.7895 10.8009 13.7292C10.8679 13.6622 10.9449 13.6288 11.0319 13.6288H11.6748C11.7619 13.6288 11.8355 13.6622 11.8958 13.7292C11.9628 13.7895 11.9962 13.8631 11.9962 13.9502ZM9.4248 11.3788V12.0216C9.4248 12.1087 9.39132 12.1857 9.32436 12.2527C9.26409 12.3129 9.19043 12.3431 9.10338 12.3431H8.46052C8.37347 12.3431 8.29646 12.3129 8.22949 12.2527C8.16922 12.1857 8.13909 12.1087 8.13909 12.0216V11.3788C8.13909 11.2917 8.16922 11.2181 8.22949 11.1578C8.29646 11.0908 8.37347 11.0573 8.46052 11.0573H9.10338C9.19043 11.0573 9.26409 11.0908 9.32436 11.1578C9.39132 11.2181 9.4248 11.2917 9.4248 11.3788ZM6.85338 8.80734V9.45019C6.85338 9.53725 6.81989 9.61426 6.75293 9.68122C6.69266 9.74149 6.619 9.77162 6.53195 9.77162H5.88909C5.80204 9.77162 5.72503 9.74149 5.65806 9.68122C5.5978 9.61426 5.56766 9.53725 5.56766 9.45019V8.80734C5.56766 8.72028 5.5978 8.64662 5.65806 8.58636C5.72503 8.51939 5.80204 8.48591 5.88909 8.48591H6.53195C6.619 8.48591 6.69266 8.51939 6.75293 8.58636C6.81989 8.64662 6.85338 8.72028 6.85338 8.80734ZM4.28195 6.23591V6.87877C4.28195 6.96582 4.24847 7.04283 4.1815 7.10979C4.12123 7.17006 4.04757 7.2002 3.96052 7.2002H3.31766C3.23061 7.2002 3.1536 7.17006 3.08664 7.10979C3.02637 7.04283 2.99623 6.96582 2.99623 6.87877V6.23591C2.99623 6.14886 3.02637 6.07519 3.08664 6.01493C3.1536 5.94796 3.23061 5.91448 3.31766 5.91448H3.96052C4.04757 5.91448 4.12123 5.94796 4.1815 6.01493C4.24847 6.07519 4.28195 6.14886 4.28195 6.23591ZM11.9962 11.3788V12.0216C11.9962 12.1087 11.9628 12.1857 11.8958 12.2527C11.8355 12.3129 11.7619 12.3431 11.6748 12.3431H11.0319C10.9449 12.3431 10.8679 12.3129 10.8009 12.2527C10.7407 12.1857 10.7105 12.1087 10.7105 12.0216V11.3788C10.7105 11.2917 10.7407 11.2181 10.8009 11.1578C10.8679 11.0908 10.9449 11.0573 11.0319 11.0573H11.6748C11.7619 11.0573 11.8355 11.0908 11.8958 11.1578C11.9628 11.2181 11.9962 11.2917 11.9962 11.3788ZM9.4248 8.80734V9.45019C9.4248 9.53725 9.39132 9.61426 9.32436 9.68122C9.26409 9.74149 9.19043 9.77162 9.10338 9.77162H8.46052C8.37347 9.77162 8.29646 9.74149 8.22949 9.68122C8.16922 9.61426 8.13909 9.53725 8.13909 9.45019V8.80734C8.13909 8.72028 8.16922 8.64662 8.22949 8.58636C8.29646 8.51939 8.37347 8.48591 8.46052 8.48591H9.10338C9.19043 8.48591 9.26409 8.51939 9.32436 8.58636C9.39132 8.64662 9.4248 8.72028 9.4248 8.80734ZM6.85338 6.23591V6.87877C6.85338 6.96582 6.81989 7.04283 6.75293 7.10979C6.69266 7.17006 6.619 7.2002 6.53195 7.2002H5.88909C5.80204 7.2002 5.72503 7.17006 5.65806 7.10979C5.5978 7.04283 5.56766 6.96582 5.56766 6.87877V6.23591C5.56766 6.14886 5.5978 6.07519 5.65806 6.01493C5.72503 5.94796 5.80204 5.91448 5.88909 5.91448H6.53195C6.619 5.91448 6.69266 5.94796 6.75293 6.01493C6.81989 6.07519 6.85338 6.14886 6.85338 6.23591ZM4.28195 3.66448V4.30734C4.28195 4.39439 4.24847 4.4714 4.1815 4.53836C4.12123 4.59863 4.04757 4.62877 3.96052 4.62877H3.31766C3.23061 4.62877 3.1536 4.59863 3.08664 4.53836C3.02637 4.4714 2.99623 4.39439 2.99623 4.30734V3.66448C2.99623 3.57743 3.02637 3.50377 3.08664 3.4435C3.1536 3.37653 3.23061 3.34305 3.31766 3.34305H3.96052C4.04757 3.34305 4.12123 3.37653 4.1815 3.4435C4.24847 3.50377 4.28195 3.57743 4.28195 3.66448ZM11.9962 8.80734V9.45019C11.9962 9.53725 11.9628 9.61426 11.8958 9.68122C11.8355 9.74149 11.7619 9.77162 11.6748 9.77162H11.0319C10.9449 9.77162 10.8679 9.74149 10.8009 9.68122C10.7407 9.61426 10.7105 9.53725 10.7105 9.45019V8.80734C10.7105 8.72028 10.7407 8.64662 10.8009 8.58636C10.8679 8.51939 10.9449 8.48591 11.0319 8.48591H11.6748C11.7619 8.48591 11.8355 8.51939 11.8958 8.58636C11.9628 8.64662 11.9962 8.72028 11.9962 8.80734ZM9.4248 6.23591V6.87877C9.4248 6.96582 9.39132 7.04283 9.32436 7.10979C9.26409 7.17006 9.19043 7.2002 9.10338 7.2002H8.46052C8.37347 7.2002 8.29646 7.17006 8.22949 7.10979C8.16922 7.04283 8.13909 6.96582 8.13909 6.87877V6.23591C8.13909 6.14886 8.16922 6.07519 8.22949 6.01493C8.29646 5.94796 8.37347 5.91448 8.46052 5.91448H9.10338C9.19043 5.91448 9.26409 5.94796 9.32436 6.01493C9.39132 6.07519 9.4248 6.14886 9.4248 6.23591ZM6.85338 3.66448V4.30734C6.85338 4.39439 6.81989 4.4714 6.75293 4.53836C6.69266 4.59863 6.619 4.62877 6.53195 4.62877H5.88909C5.80204 4.62877 5.72503 4.59863 5.65806 4.53836C5.5978 4.4714 5.56766 4.39439 5.56766 4.30734V3.66448C5.56766 3.57743 5.5978 3.50377 5.65806 3.4435C5.72503 3.37653 5.80204 3.34305 5.88909 3.34305H6.53195C6.619 3.34305 6.69266 3.37653 6.75293 3.4435C6.81989 3.50377 6.85338 3.57743 6.85338 3.66448ZM11.9962 6.23591V6.87877C11.9962 6.96582 11.9628 7.04283 11.8958 7.10979C11.8355 7.17006 11.7619 7.2002 11.6748 7.2002H11.0319C10.9449 7.2002 10.8679 7.17006 10.8009 7.10979C10.7407 7.04283 10.7105 6.96582 10.7105 6.87877V6.23591C10.7105 6.14886 10.7407 6.07519 10.8009 6.01493C10.8679 5.94796 10.9449 5.91448 11.0319 5.91448H11.6748C11.7619 5.91448 11.8355 5.94796 11.8958 6.01493C11.9628 6.07519 11.9962 6.14886 11.9962 6.23591ZM9.4248 3.66448V4.30734C9.4248 4.39439 9.39132 4.4714 9.32436 4.53836C9.26409 4.59863 9.19043 4.62877 9.10338 4.62877H8.46052C8.37347 4.62877 8.29646 4.59863 8.22949 4.53836C8.16922 4.4714 8.13909 4.39439 8.13909 4.30734V3.66448C8.13909 3.57743 8.16922 3.50377 8.22949 3.4435C8.29646 3.37653 8.37347 3.34305 8.46052 3.34305H9.10338C9.19043 3.34305 9.26409 3.37653 9.32436 3.4435C9.39132 3.50377 9.4248 3.57743 9.4248 3.66448ZM11.9962 3.66448V4.30734C11.9962 4.39439 11.9628 4.4714 11.8958 4.53836C11.8355 4.59863 11.7619 4.62877 11.6748 4.62877H11.0319C10.9449 4.62877 10.8679 4.59863 10.8009 4.53836C10.7407 4.4714 10.7105 4.39439 10.7105 4.30734V3.66448C10.7105 3.57743 10.7407 3.50377 10.8009 3.4435C10.8679 3.37653 10.9449 3.34305 11.0319 3.34305H11.6748C11.7619 3.34305 11.8355 3.37653 11.8958 3.4435C11.9628 3.50377 11.9962 3.57743 11.9962 3.66448ZM9.4248 17.4859H13.2819V2.05734H1.71052V17.4859H5.56766V15.2359C5.56766 15.1489 5.5978 15.0752 5.65806 15.0149C5.72503 14.948 5.80204 14.9145 5.88909 14.9145H9.10338C9.19043 14.9145 9.26409 14.948 9.32436 15.0149C9.39132 15.0752 9.4248 15.1489 9.4248 15.2359V17.4859ZM14.5677 1.41448V18.1288C14.5677 18.3029 14.504 18.4535 14.3768 18.5808C14.2496 18.708 14.0989 18.7716 13.9248 18.7716H1.06766C0.893555 18.7716 0.742885 18.708 0.615653 18.5808C0.488421 18.4535 0.424805 18.3029 0.424805 18.1288V1.41448C0.424805 1.24037 0.488421 1.0897 0.615653 0.962471C0.742885 0.835239 0.893555 0.771623 1.06766 0.771623H13.9248C14.0989 0.771623 14.2496 0.835239 14.3768 0.962471C14.504 1.0897 14.5677 1.24037 14.5677 1.41448Z" fill="white"/>
</svg>
