<svg width="44" height="35" viewBox="0 0 44 35" fill="none" xmlns="http://www.w3.org/2000/svg">
<path d="M5.44817 13.4855L18.5199 27.4385L12.2253 13.4855H5.44817ZM22.4855 29.6835L29.8082 13.4855H15.1628L22.4855 29.6835ZM12.2883 10.7998L16.5686 2.74274H11.0713L5.02853 10.7998H12.2883ZM26.4511 27.4385L39.5228 13.4855H32.7457L26.4511 27.4385ZM15.3307 10.7998H29.6403L25.36 2.74274H19.611L15.3307 10.7998ZM32.6827 10.7998H39.9425L33.8997 2.74274H28.4024L32.6827 10.7998ZM35.6412 0.602589L43.6982 11.3453C43.894 11.5971 43.985 11.8909 43.971 12.2266C43.957 12.5483 43.8381 12.8281 43.6143 13.0659L23.4716 34.5513C23.2199 34.8311 22.8911 34.971 22.4855 34.971C22.0798 34.971 21.7511 34.8311 21.4993 34.5513L1.35669 13.0659C1.13289 12.8281 1.01399 12.5483 1 12.2266C0.986012 11.8909 1.07693 11.5971 1.27277 11.3453L9.32982 0.602589C9.58161 0.238901 9.9383 0.0570576 10.3999 0.0570576H34.5711C35.0327 0.0570576 35.3894 0.238901 35.6412 0.602589Z" fill="white"/>
</svg>
