<svg width="16" height="16" viewBox="0 0 16 16" fill="none" xmlns="http://www.w3.org/2000/svg">
<path d="M10.2857 13.8386C10.0045 12.2247 9.53571 10.5573 8.87946 8.83636H8.85938L8.83929 8.8464C8.73214 8.88658 8.58817 8.9435 8.40737 9.01716C8.22656 9.08412 7.88839 9.24819 7.39286 9.50935C6.89732 9.76381 6.43862 10.0384 6.01674 10.333C5.59487 10.621 5.15625 11.0027 4.70089 11.4781C4.24554 11.9535 3.90067 12.4491 3.66629 12.9647L3.51563 12.8542C4.74777 13.8587 6.14732 14.3609 7.71429 14.3609C8.59822 14.3609 9.45536 14.1868 10.2857 13.8386ZM8.42746 7.74149C8.28683 7.41336 8.10938 7.04171 7.89509 6.62653C5.8125 7.2493 3.55915 7.56069 1.13504 7.56069C1.12835 7.60756 1.125 7.67787 1.125 7.77162C1.125 8.60198 1.27232 9.39551 1.56696 10.1522C1.86161 10.9022 2.27679 11.5752 2.8125 12.1712C3.14732 11.5752 3.55915 11.0194 4.04799 10.5038C4.54353 9.98145 5.02232 9.56292 5.48438 9.24819C5.94643 8.93345 6.3817 8.66225 6.79018 8.43457C7.20536 8.20689 7.54018 8.04618 7.79464 7.95243L8.16629 7.82185C8.19308 7.81515 8.23661 7.80511 8.29688 7.79171C8.35714 7.77162 8.40067 7.75488 8.42746 7.74149ZM7.35268 5.61203C6.54911 4.18569 5.73214 2.92006 4.90179 1.81515C3.97768 2.25042 3.1942 2.87319 2.55134 3.68345C1.90848 4.49372 1.47991 5.40444 1.26562 6.4156C3.28795 6.4156 5.31696 6.14774 7.35268 5.61203ZM14.2232 8.81627C12.817 8.41448 11.4475 8.31738 10.115 8.52497C10.6975 10.1254 11.1261 11.6957 11.4007 13.2359C12.144 12.7337 12.7634 12.1009 13.2589 11.3375C13.7545 10.5674 14.0759 9.72698 14.2232 8.81627ZM6.13728 1.37319C6.13058 1.37319 6.12388 1.37653 6.11719 1.38323C6.12388 1.37653 6.13058 1.37319 6.13728 1.37319ZM12.0636 2.82966C10.8248 1.73144 9.375 1.18234 7.71429 1.18234C7.20536 1.18234 6.68638 1.24595 6.15737 1.37319C7.0346 2.51158 7.85826 3.7906 8.62835 5.21024C9.0904 5.03613 9.52567 4.83524 9.93415 4.60756C10.3426 4.37319 10.6641 4.1656 10.8984 3.98479C11.1395 3.80399 11.3605 3.61314 11.5614 3.41225C11.7623 3.21136 11.8862 3.07743 11.933 3.01046C11.9866 2.9368 12.0301 2.87653 12.0636 2.82966ZM14.3036 7.70131C14.2835 6.14774 13.7846 4.77497 12.8069 3.58301L12.7969 3.59305C12.7366 3.67341 12.673 3.75711 12.606 3.84417C12.5391 3.92452 12.3917 4.07185 12.1641 4.28613C11.9431 4.50042 11.7054 4.70466 11.4509 4.89886C11.2031 5.08636 10.8683 5.30399 10.4464 5.55176C10.0313 5.79283 9.59263 6.00711 9.13058 6.19461C9.29799 6.54953 9.44531 6.86761 9.57255 7.14886C9.58594 7.18234 9.60603 7.23926 9.63281 7.31961C9.6663 7.39997 9.69308 7.45689 9.71317 7.49037C9.95424 7.45689 10.202 7.43345 10.4565 7.42006C10.7176 7.40667 10.9654 7.39997 11.1998 7.39997C11.4342 7.39997 11.6652 7.40667 11.8929 7.42006C12.1205 7.42676 12.3348 7.44015 12.5357 7.46024C12.7366 7.47363 12.9241 7.49037 13.0982 7.51046C13.279 7.53055 13.4397 7.55399 13.5804 7.58078C13.7277 7.60086 13.8516 7.62095 13.952 7.64104C14.0525 7.65444 14.1362 7.66783 14.2031 7.68122L14.3036 7.70131ZM14.394 3.90444C15.0837 5.08301 15.4286 6.37207 15.4286 7.77162C15.4286 9.17118 15.0837 10.4636 14.394 11.6489C13.7042 12.8274 12.7667 13.7616 11.5815 14.4513C10.4029 15.141 9.11384 15.4859 7.71429 15.4859C6.31473 15.4859 5.02232 15.141 3.83705 14.4513C2.65848 13.7616 1.72433 12.8274 1.0346 11.6489C0.344866 10.4636 0 9.17118 0 7.77162C0 6.37207 0.344866 5.08301 1.0346 3.90444C1.72433 2.71917 2.65848 1.78167 3.83705 1.09194C5.02232 0.402204 6.31473 0.0573374 7.71429 0.0573374C9.11384 0.0573374 10.4029 0.402204 11.5815 1.09194C12.7667 1.78167 13.7042 2.71917 14.394 3.90444Z" fill="white"/>
</svg>
