<svg width="19" height="15" viewBox="0 0 19 15" fill="none" xmlns="http://www.w3.org/2000/svg">
<path d="M18.5 4.90332V12.8788C18.5 13.3207 18.3426 13.6991 18.0279 14.0138C17.7132 14.3285 17.3348 14.4859 16.8929 14.4859H2.10714C1.66518 14.4859 1.28683 14.3285 0.972098 14.0138C0.657366 13.6991 0.5 13.3207 0.5 12.8788V4.90332C0.794643 5.23144 1.13281 5.52274 1.51451 5.7772C3.93862 7.42453 5.60268 8.57966 6.5067 9.24261C6.88839 9.52386 7.19643 9.74484 7.4308 9.90555C7.67188 10.0596 7.98996 10.2203 8.38504 10.3877C8.78013 10.5484 9.14844 10.6288 9.48996 10.6288H9.5H9.51005C9.85156 10.6288 10.2199 10.5484 10.615 10.3877C11.01 10.2203 11.3248 10.0596 11.5592 9.90555C11.8002 9.74484 12.1116 9.52386 12.4933 9.24261C13.6317 8.41895 15.2991 7.26381 17.4955 5.7772C17.8772 5.51604 18.2121 5.22475 18.5 4.90332ZM18.5 1.9502C18.5 2.47921 18.3359 2.98479 18.0078 3.46694C17.6797 3.94908 17.2712 4.36091 16.7824 4.70243C14.2645 6.45019 12.6975 7.53836 12.0815 7.96694C12.0145 8.01381 11.8705 8.11761 11.6496 8.27832C11.4353 8.43234 11.2545 8.55957 11.1071 8.66002C10.9665 8.75377 10.7924 8.86091 10.5848 8.98145C10.3839 9.10198 10.1931 9.19238 10.0123 9.25265C9.83147 9.31292 9.66406 9.34305 9.51005 9.34305H9.5H9.48996C9.33594 9.34305 9.16853 9.31292 8.98772 9.25265C8.80692 9.19238 8.61272 9.10198 8.40513 8.98145C8.20424 8.86091 8.03013 8.75377 7.88281 8.66002C7.74219 8.55957 7.56138 8.43234 7.3404 8.27832C7.12612 8.11761 6.98549 8.01381 6.91853 7.96694C6.30915 7.53836 5.43192 6.92899 4.28683 6.13881C3.14174 5.34194 2.45536 4.86314 2.22768 4.70243C1.8125 4.42118 1.42076 4.03613 1.05246 3.54729C0.684152 3.05176 0.5 2.59305 0.5 2.17118C0.5 1.64886 0.637277 1.21359 0.91183 0.865374C1.19308 0.517159 1.59152 0.343052 2.10714 0.343052H16.8929C17.3281 0.343052 17.7031 0.500418 18.0179 0.81515C18.3393 1.12988 18.5 1.50823 18.5 1.9502Z" fill="white"/>
</svg>
