<svg width="21" height="14" viewBox="0 0 21 14" fill="none" xmlns="http://www.w3.org/2000/svg">
<path d="M18.5625 1.17657H13.4297V2.42211H18.5625V1.17657ZM16.0313 5.45559C15.4286 5.45559 14.9397 5.63305 14.5647 5.98796C14.1897 6.33617 13.9821 6.81162 13.942 7.4143H18.0402C17.9196 6.10849 17.25 5.45559 16.0313 5.45559ZM16.192 11.3317C16.6138 11.3317 17.0223 11.2246 17.4174 11.0103C17.8125 10.796 18.067 10.5047 18.1808 10.1364H20.4007C19.731 12.1922 18.3013 13.2201 16.1116 13.2201C14.6786 13.2201 13.5368 12.7781 12.6864 11.8942C11.8426 11.0103 11.4208 9.84845 11.4208 8.40872C11.4208 7.01586 11.856 5.86073 12.7266 4.94332C13.6038 4.01921 14.7321 3.55715 16.1116 3.55715C17.0357 3.55715 17.8393 3.78483 18.5223 4.24019C19.2121 4.69555 19.7243 5.29488 20.0592 6.03818C20.4007 6.78148 20.5714 7.61184 20.5714 8.52925C20.5714 8.64309 20.5647 8.80046 20.5513 9.00135H13.942C13.942 9.74466 14.1328 10.3205 14.5145 10.729C14.9029 11.1308 15.4621 11.3317 16.192 11.3317ZM2.78237 10.8295H5.75558C7.12835 10.8295 7.81473 10.2703 7.81473 9.15202C7.81473 7.94666 7.14844 7.34398 5.81585 7.34398H2.78237V10.8295ZM2.78237 5.4355H5.60491C6.12723 5.4355 6.53906 5.31497 6.8404 5.0739C7.14844 4.82613 7.30246 4.44443 7.30246 3.92881C7.30246 2.96452 6.66629 2.48238 5.39397 2.48238H2.78237V5.4355ZM0 0.322779H5.96652C6.54911 0.322779 7.06808 0.369654 7.52344 0.463404C7.9788 0.557154 8.40067 0.717869 8.78906 0.945547C9.18415 1.16653 9.48549 1.48796 9.69308 1.90983C9.90737 2.33171 10.0145 2.84733 10.0145 3.45671C10.0145 4.66876 9.43862 5.54934 8.28683 6.09845C9.05022 6.31274 9.62612 6.69778 10.0145 7.25358C10.4029 7.80939 10.5971 8.49242 10.5971 9.30269C10.5971 9.80492 10.5134 10.2636 10.346 10.6788C10.1853 11.0873 9.96429 11.4322 9.68304 11.7134C9.40848 11.9947 9.08036 12.2324 8.69866 12.4266C8.31696 12.6208 7.91183 12.7614 7.48326 12.8484C7.05469 12.9355 6.60603 12.979 6.13728 12.979H0V0.322779Z" fill="white"/>
</svg>
