<svg width="38" height="38" viewBox="0 0 38 38" fill="none" xmlns="http://www.w3.org/2000/svg">
<path d="M34.9139 34.6139V11.7855C34.9139 11.6037 34.844 11.4498 34.7041 11.3239C34.5782 11.1841 34.4243 11.1141 34.2425 11.1141H11.4142C11.2323 11.1141 11.0715 11.1841 10.9316 11.3239C10.8057 11.4498 10.7427 11.6037 10.7427 11.7855V34.6139C10.7427 34.7957 10.8057 34.9496 10.9316 35.0755C11.0715 35.2154 11.2323 35.2853 11.4142 35.2853H34.2425C34.4243 35.2853 34.5782 35.2154 34.7041 35.0755C34.844 34.9496 34.9139 34.7957 34.9139 34.6139ZM37.5996 11.7855V34.6139C37.5996 35.5371 37.2709 36.3274 36.6135 36.9848C35.956 37.6423 35.1657 37.971 34.2425 37.971H11.4142C10.491 37.971 9.70064 37.6423 9.04321 36.9848C8.38578 36.3274 8.05706 35.5371 8.05706 34.6139V11.7855C8.05706 10.8623 8.38578 10.072 9.04321 9.41458C9.70064 8.75715 10.491 8.42843 11.4142 8.42843H34.2425C35.1657 8.42843 35.956 8.75715 36.6135 9.41458C37.2709 10.072 37.5996 10.8623 37.5996 11.7855ZM29.5426 3.72848V7.08559H26.8569V3.72848C26.8569 3.54664 26.7869 3.39277 26.647 3.26688C26.5212 3.127 26.3673 3.05706 26.1854 3.05706H3.35711C3.17526 3.05706 3.0144 3.127 2.87452 3.26688C2.74863 3.39277 2.68569 3.54664 2.68569 3.72848V26.5568C2.68569 26.7387 2.74863 26.8995 2.87452 27.0394C3.0144 27.1653 3.17526 27.2282 3.35711 27.2282H6.71422V29.9139H3.35711C2.4339 29.9139 1.64358 29.5852 0.98615 28.9278C0.328717 28.2703 0 27.48 0 26.5568V3.72848C0 2.80527 0.328717 2.01495 0.98615 1.35752C1.64358 0.700087 2.4339 0.37137 3.35711 0.37137H26.1854C27.1086 0.37137 27.899 0.700087 28.5564 1.35752C29.2138 2.01495 29.5426 2.80527 29.5426 3.72848Z" fill="white"/>
</svg>
