<svg width="17" height="16" viewBox="0 0 17 16" fill="none" xmlns="http://www.w3.org/2000/svg">
<path d="M13.3189 0.0573374C14.1158 0.0573374 14.7955 0.341936 15.358 0.911132C15.9272 1.47363 16.2118 2.15332 16.2118 2.9502V12.5931C16.2118 13.3899 15.9272 14.0696 15.358 14.6321C14.7955 15.2013 14.1158 15.4859 13.3189 15.4859H11.4305V9.50935H13.4294L13.7307 7.17899H11.4305V5.69238C11.4305 5.31738 11.5075 5.03613 11.6616 4.84863C11.8223 4.66113 12.1303 4.56738 12.5857 4.56738L13.8111 4.55734V2.4781C13.3892 2.41783 12.7932 2.3877 12.0232 2.3877C11.1124 2.3877 10.3825 2.65555 9.83343 3.19127C9.29102 3.72698 9.01981 4.48368 9.01981 5.46136V7.17899H7.01088V9.50935H9.01981V15.4859H3.67606C2.87919 15.4859 2.19615 15.2013 1.62695 14.6321C1.06445 14.0696 0.783203 13.3899 0.783203 12.5931V2.9502C0.783203 2.15332 1.06445 1.47363 1.62695 0.911132C2.19615 0.341936 2.87919 0.0573374 3.67606 0.0573374H13.3189Z" fill="white"/>
</svg>
