<svg width="17" height="19" viewBox="0 0 17 19" fill="none" xmlns="http://www.w3.org/2000/svg">
<path d="M5.47656 15.9792C5.47656 15.3096 4.92411 14.9747 3.8192 14.9747C2.76116 14.9747 2.23214 15.323 2.23214 16.0194C2.23214 16.6957 2.80804 17.0339 3.95982 17.0339C4.97098 17.0339 5.47656 16.6823 5.47656 15.9792ZM4.88393 8.39551C4.88393 7.98703 4.78348 7.64551 4.58259 7.37095C4.3817 7.0964 4.08371 6.95912 3.68862 6.95912C2.85826 6.95912 2.44308 7.44461 2.44308 8.4156C2.44308 9.31961 2.85826 9.77162 3.68862 9.77162C4.48549 9.77162 4.88393 9.31292 4.88393 8.39551ZM7.58594 5.14104V7.17006C7.34487 7.25042 7.08036 7.32408 6.79241 7.39104C6.89955 7.67899 6.95313 7.96024 6.95313 8.23479C6.95313 9.08524 6.70871 9.8118 6.21987 10.4145C5.73103 11.0105 5.07143 11.3855 4.24107 11.5395C3.97321 11.5931 3.77232 11.6835 3.63839 11.8107C3.51116 11.9379 3.44754 12.1321 3.44754 12.3933C3.44754 12.6009 3.52121 12.775 3.66853 12.9156C3.82254 13.0495 4.01674 13.1567 4.25112 13.237C4.49219 13.3107 4.7567 13.3843 5.04464 13.458C5.33259 13.525 5.62054 13.6087 5.90848 13.7091C6.19643 13.8096 6.45759 13.9368 6.69196 14.0908C6.93304 14.2381 7.12723 14.4524 7.27455 14.7337C7.42857 15.0082 7.50558 15.3364 7.50558 15.7181C7.50558 17.7538 6.29018 18.7716 3.85938 18.7716C3.39732 18.7716 2.96205 18.7281 2.55357 18.641C2.14509 18.5607 1.7567 18.4234 1.38839 18.2292C1.02009 18.0417 0.725446 17.7672 0.504464 17.4056C0.290179 17.0506 0.183036 16.6254 0.183036 16.1299C0.183036 15.025 0.792411 14.2716 2.01116 13.8698V13.8297C1.5625 13.5551 1.33817 13.1332 1.33817 12.564C1.33817 11.8341 1.54911 11.3754 1.97098 11.1879V11.1477C1.48884 10.987 1.08705 10.6254 0.765625 10.0629C0.450893 9.49372 0.293527 8.93792 0.293527 8.39551C0.293527 7.4647 0.611607 6.69127 1.24777 6.0752C1.88393 5.45243 2.67076 5.14104 3.60826 5.14104C4.25112 5.14104 4.8471 5.29841 5.39621 5.61314C6.05246 5.61314 6.78237 5.45577 7.58594 5.14104ZM10.7801 13.9904H8.55022C8.57701 13.689 8.5904 13.2404 8.5904 12.6444V6.5272C8.5904 5.89774 8.57701 5.46917 8.55022 5.24149H10.7801C10.7533 5.46247 10.74 5.87765 10.74 6.48702V12.6444C10.74 13.2404 10.7533 13.689 10.7801 13.9904ZM16.817 11.7605V13.7292C16.3415 13.9904 15.7589 14.121 15.0692 14.121C14.654 14.121 14.2958 14.054 13.9944 13.9201C13.6931 13.7861 13.4587 13.6187 13.2913 13.4178C13.1239 13.2169 12.99 12.9558 12.8895 12.6343C12.7958 12.3129 12.7355 12.0049 12.7087 11.7102C12.6819 11.4156 12.6685 11.0707 12.6685 10.6756V7.14997H12.6886V7.10979C12.6417 7.10979 12.5781 7.10644 12.4978 7.09975C12.4174 7.09305 12.3571 7.0897 12.317 7.0897C12.1763 7.0897 11.9788 7.10979 11.7243 7.14997V5.24149H12.6886V4.4781C12.6886 4.11649 12.6685 3.8185 12.6283 3.58412H14.9085C14.8683 3.85868 14.8482 4.41113 14.8482 5.24149H16.5658V7.14997C16.4654 7.14997 16.3181 7.14328 16.1239 7.12988C15.9364 7.11649 15.7958 7.10979 15.702 7.10979H14.8482V10.7761C14.8482 11.6533 15.1395 12.0919 15.7221 12.0919C16.1306 12.0919 16.4955 11.9814 16.817 11.7605ZM10.6395 1.22363C10.9007 1.51827 11.0312 1.85979 11.0312 2.24819C11.0312 2.63658 10.9007 2.9781 10.6395 3.27274C10.3783 3.56069 10.0569 3.70466 9.67522 3.70466C9.28683 3.70466 8.95871 3.56069 8.69085 3.27274C8.42299 2.9781 8.28906 2.63658 8.28906 2.24819C8.28906 1.8531 8.41964 1.50823 8.6808 1.21359C8.94866 0.918944 9.28013 0.771623 9.67522 0.771623C10.0636 0.771623 10.385 0.922292 10.6395 1.22363Z" fill="white"/>
</svg>
