<svg width="24" height="16" viewBox="0 0 24 16" fill="none" xmlns="http://www.w3.org/2000/svg">
<path d="M14.4342 7.94238C14.4342 9.33524 14.1429 10.5774 13.5603 11.6689C12.9777 12.7538 12.1473 13.6009 11.0692 14.2102C9.99107 14.8263 8.75558 15.1343 7.36272 15.1343C6.36496 15.1343 5.41071 14.9402 4.5 14.5518C3.58929 14.1634 2.8058 13.641 2.14955 12.9848C1.4933 12.3285 0.970982 11.5451 0.582589 10.6343C0.194196 9.72363 0 8.76939 0 7.77162C0 6.77386 0.194196 5.81961 0.582589 4.9089C0.970982 3.99819 1.4933 3.2147 2.14955 2.55845C2.8058 1.9022 3.58929 1.37988 4.5 0.99149C5.41071 0.603096 6.36496 0.4089 7.36272 0.4089C9.2779 0.4089 10.9219 1.05176 12.2946 2.33747L10.2958 4.256C9.51228 3.4993 8.5346 3.12095 7.36272 3.12095C6.53906 3.12095 5.77567 3.32854 5.07254 3.74372C4.37612 4.1589 3.82366 4.72475 3.41518 5.44127C3.0067 6.15109 2.80246 6.92787 2.80246 7.77162C2.80246 8.61537 3.0067 9.39551 3.41518 10.112C3.82366 10.8218 4.37612 11.3843 5.07254 11.7995C5.77567 12.2147 6.53906 12.4223 7.36272 12.4223C7.91853 12.4223 8.42746 12.3453 8.88951 12.1913C9.35826 12.0372 9.7433 11.8464 10.0446 11.6187C10.346 11.3843 10.6071 11.1198 10.8281 10.8252C11.0558 10.5306 11.2199 10.2527 11.3203 9.99149C11.4275 9.73033 11.5011 9.48256 11.5413 9.24819H7.36272V6.71694H14.3136C14.394 7.13881 14.4342 7.54729 14.4342 7.94238ZM23.1429 6.71694V8.82631H21.0435V10.9256H18.9342V8.82631H16.8348V6.71694H18.9342V4.61761H21.0435V6.71694H23.1429Z" fill="white"/>
</svg>
