<svg width="16" height="16" viewBox="0 0 16 16" fill="none" xmlns="http://www.w3.org/2000/svg">
<path d="M9.81557 9.5897C10.3178 9.08747 10.5689 8.48144 10.5689 7.77162C10.5689 7.0618 10.3178 6.45578 9.81557 5.95354C9.31334 5.45131 8.70731 5.2002 7.99749 5.2002C7.28767 5.2002 6.68164 5.45131 6.17941 5.95354C5.67718 6.45578 5.42606 7.0618 5.42606 7.77162C5.42606 8.48144 5.67718 9.08747 6.17941 9.5897C6.68164 10.0919 7.28767 10.3431 7.99749 10.3431C8.70731 10.3431 9.31334 10.0919 9.81557 9.5897ZM10.7999 4.96917C11.57 5.73926 11.9551 6.67341 11.9551 7.77162C11.9551 8.86984 11.57 9.80399 10.7999 10.5741C10.0299 11.3442 9.0957 11.7292 7.99749 11.7292C6.89928 11.7292 5.96512 11.3442 5.19503 10.5741C4.42494 9.80399 4.0399 8.86984 4.0399 7.77162C4.0399 6.67341 4.42494 5.73926 5.19503 4.96917C5.96512 4.19908 6.89928 3.81403 7.99749 3.81403C9.0957 3.81403 10.0299 4.19908 10.7999 4.96917ZM12.7687 3.00042C12.9495 3.18122 13.0399 3.39886 13.0399 3.65332C13.0399 3.90778 12.9495 4.12542 12.7687 4.30622C12.5879 4.48703 12.3703 4.57743 12.1158 4.57743C11.8613 4.57743 11.6437 4.48703 11.4629 4.30622C11.2821 4.12542 11.1917 3.90778 11.1917 3.65332C11.1917 3.39886 11.2821 3.18122 11.4629 3.00042C11.6437 2.81961 11.8613 2.72921 12.1158 2.72921C12.3703 2.72921 12.5879 2.81961 12.7687 3.00042ZM8.76088 1.4435C8.29883 1.4435 8.04436 1.4435 7.99749 1.4435C7.95061 1.4435 7.6928 1.4435 7.22405 1.4435C6.762 1.4368 6.41044 1.4368 6.16936 1.4435C5.92829 1.4435 5.60352 1.45354 5.19503 1.47363C4.79325 1.48702 4.44838 1.52051 4.16044 1.57408C3.87919 1.62095 3.64146 1.68122 3.44727 1.75488C3.11244 1.88881 2.8178 2.08301 2.56334 2.33747C2.30887 2.59194 2.11468 2.88658 1.98075 3.2214C1.90709 3.4156 1.84347 3.65667 1.7899 3.94461C1.74302 4.22586 1.70954 4.57073 1.68945 4.97921C1.67606 5.381 1.66602 5.70243 1.65932 5.9435C1.65932 6.18457 1.65932 6.53948 1.65932 7.00823C1.66602 7.47028 1.66936 7.72475 1.66936 7.77162C1.66936 7.8185 1.66602 8.07631 1.65932 8.54506C1.65932 9.00711 1.65932 9.35868 1.65932 9.59975C1.66602 9.84082 1.67606 10.1656 1.68945 10.5741C1.70954 10.9759 1.74302 11.3207 1.7899 11.6087C1.84347 11.8899 1.90709 12.1277 1.98075 12.3218C2.11468 12.6567 2.30887 12.9513 2.56334 13.2058C2.8178 13.4602 3.11244 13.6544 3.44727 13.7884C3.64146 13.862 3.87919 13.9256 4.16044 13.9792C4.44838 14.0261 4.79325 14.0596 5.19503 14.0797C5.60352 14.0931 5.92829 14.1031 6.16936 14.1098C6.41044 14.1098 6.762 14.1098 7.22405 14.1098C7.6928 14.1031 7.95061 14.0997 7.99749 14.0997C8.04436 14.0997 8.29883 14.1031 8.76088 14.1098C9.22963 14.1098 9.58454 14.1098 9.82561 14.1098C10.0667 14.1031 10.3881 14.0931 10.7899 14.0797C11.1984 14.0596 11.5432 14.0261 11.8245 13.9792C12.1124 13.9256 12.3535 13.862 12.5477 13.7884C12.8825 13.6544 13.1772 13.4602 13.4316 13.2058C13.6861 12.9513 13.8803 12.6567 14.0142 12.3218C14.0879 12.1277 14.1482 11.8899 14.195 11.6087C14.2486 11.3207 14.2821 10.9759 14.2955 10.5741C14.3156 10.1656 14.3256 9.84082 14.3256 9.59975C14.3323 9.35868 14.3323 9.00711 14.3256 8.54506C14.3256 8.07631 14.3256 7.8185 14.3256 7.77162C14.3256 7.72475 14.3256 7.47028 14.3256 7.00823C14.3323 6.53948 14.3323 6.18457 14.3256 5.9435C14.3256 5.70243 14.3156 5.381 14.2955 4.97921C14.2821 4.57073 14.2486 4.22586 14.195 3.94461C14.1482 3.65667 14.0879 3.4156 14.0142 3.2214C13.8803 2.88658 13.6861 2.59194 13.4316 2.33747C13.1772 2.08301 12.8825 1.88881 12.5477 1.75488C12.3535 1.68122 12.1124 1.62095 11.8245 1.57408C11.5432 1.52051 11.1984 1.48702 10.7899 1.47363C10.3881 1.45354 10.0667 1.4435 9.82561 1.4435C9.58454 1.4368 9.22963 1.4368 8.76088 1.4435ZM15.6616 4.58747C15.695 5.17676 15.7118 6.23814 15.7118 7.77162C15.7118 9.30511 15.695 10.3665 15.6616 10.9558C15.5946 12.3486 15.1794 13.4268 14.416 14.1902C13.6526 14.9535 12.5745 15.3687 11.1816 15.4357C10.5924 15.4692 9.53097 15.4859 7.99749 15.4859C6.46401 15.4859 5.40262 15.4692 4.81334 15.4357C3.42048 15.3687 2.34235 14.9535 1.57896 14.1902C0.815569 13.4268 0.400391 12.3486 0.333426 10.9558C0.299944 10.3665 0.283203 9.30511 0.283203 7.77162C0.283203 6.23814 0.299944 5.17676 0.333426 4.58747C0.400391 3.19461 0.815569 2.11649 1.57896 1.3531C2.34235 0.589703 3.42048 0.174525 4.81334 0.107561C5.40262 0.0740787 6.46401 0.0573374 7.99749 0.0573374C9.53097 0.0573374 10.5924 0.0740787 11.1816 0.107561C12.5745 0.174525 13.6526 0.589703 14.416 1.3531C15.1794 2.11649 15.5946 3.19461 15.6616 4.58747Z" fill="white"/>
</svg>
