<svg width="19" height="16" viewBox="0 0 19 16" fill="none" xmlns="http://www.w3.org/2000/svg">
<path d="M6.49665 3.00042V14.7828C6.49665 14.9502 6.45313 15.0908 6.36607 15.2047C6.28571 15.3252 6.16518 15.3855 6.00446 15.3855C5.89063 15.3855 5.78013 15.3587 5.67299 15.3051L1.00223 12.9647C0.861607 12.8977 0.741071 12.7872 0.640625 12.6332C0.546875 12.4725 0.5 12.3152 0.5 12.1611V0.71024C0.5 0.576311 0.533482 0.462471 0.600446 0.368721C0.667411 0.274971 0.764509 0.228096 0.891741 0.228096C0.985491 0.228096 1.13281 0.27832 1.33371 0.378766L6.46652 2.9502C6.48661 2.97028 6.49665 2.98702 6.49665 3.00042ZM7.13951 4.01493L12.5033 12.7136L7.13951 10.0417V4.01493ZM18.5 4.19573V14.7828C18.5 14.9502 18.4531 15.0841 18.3594 15.1846C18.2656 15.2917 18.1384 15.3453 17.9777 15.3453C17.817 15.3453 17.6596 15.3018 17.5056 15.2147L13.0759 13.0049L18.5 4.19573ZM18.4699 2.99037C18.4699 3.01046 17.6094 4.41671 15.8884 7.20912C14.1741 9.99484 13.1696 11.6254 12.875 12.1009L8.95759 5.73256L12.2121 0.439034C12.3259 0.251534 12.5 0.157784 12.7344 0.157784C12.8281 0.157784 12.9152 0.177873 12.9955 0.218052L18.4297 2.93011C18.4565 2.9435 18.4699 2.96359 18.4699 2.99037Z" fill="white"/>
</svg>
