<?xml version="1.0" encoding="UTF-8"?>
<svg id="Layer_1" data-name="Layer 1" xmlns="http://www.w3.org/2000/svg" version="1.1" viewBox="0 0 10.3 10.3">
  <path d="M7,2c-.6-.3-1.2-.5-1.8-.5s-1.3.2-1.8.5c-.6.3-1,.8-1.3,1.3-.3.6-.5,1.2-.5,1.8s.2,1.3.5,1.8.8,1,1.3,1.3c.6.3,1.2.5,1.8.5s1.3-.2,1.8-.5c.6-.3,1-.8,1.3-1.3.3-.6.5-1.2.5-1.8s-.2-1.3-.5-1.8c-.3-.6-.8-1-1.3-1.3ZM9.6,2.6c.5.8.7,1.6.7,2.6s-.2,1.8-.7,2.6c-.5.8-1.1,1.4-1.9,1.9-.8.5-1.6.7-2.6.7s-1.8-.2-2.6-.7c-.8-.5-1.4-1.1-1.9-1.9-.5-.8-.7-1.7-.7-2.6s.2-1.8.7-2.6c.5-.8,1.1-1.4,1.9-1.9.8-.5,1.7-.7,2.6-.7s1.8.2,2.6.7c.8.5,1.4,1.1,1.9,1.9Z" fill="#fff" isolation="isolate" opacity=".3" stroke-width="0"/>
</svg>