<?xml version="1.0" encoding="UTF-8"?>
<svg id="Layer_1" data-name="Layer 1" xmlns="http://www.w3.org/2000/svg" version="1.1" viewBox="0 0 37.6 37.6">
  <path d="M34.9,34.2V11.4c0-.2,0-.3-.2-.5-.1-.1-.3-.2-.5-.2H11.4c-.2,0-.3,0-.5.2-.1.1-.2.3-.2.5v22.8c0,.2,0,.3.2.5.1.1.3.2.5.2h22.8c.2,0,.3,0,.5-.2.1-.1.2-.3.2-.5ZM37.6,11.4v22.8c0,.9-.3,1.7-1,2.4-.7.7-1.4,1-2.4,1H11.4c-.9,0-1.7-.3-2.4-1-.7-.7-1-1.4-1-2.4V11.4c0-.9.3-1.7,1-2.4.7-.7,1.4-1,2.4-1h22.8c.9,0,1.7.3,2.4,1,.7.7,1,1.4,1,2.4ZM29.5,3.4v3.4h-2.7v-3.4c0-.2,0-.3-.2-.5-.1-.1-.3-.2-.5-.2H3.4c-.2,0-.3,0-.5.2s-.2.3-.2.5v22.8c0,.2,0,.3.2.5.1.1.3.2.5.2h3.4v2.7h-3.4c-.9,0-1.7-.3-2.4-1-.7-.7-1-1.4-1-2.4V3.4c0-.9.3-1.7,1-2.4.7-.7,1.4-1,2.4-1h22.8c.9,0,1.7.3,2.4,1,.7.7,1,1.4,1,2.4Z" fill="#fff" stroke-width="0"/>
</svg>