<svg width="15" height="15" viewBox="0 0 15 15" fill="none" xmlns="http://www.w3.org/2000/svg">
<path d="M14.5677 11.227C14.5677 11.4078 14.5342 11.6455 14.4672 11.9402C14.4003 12.2281 14.3299 12.4558 14.2563 12.6232C14.1157 12.958 13.7072 13.3129 13.0308 13.6879C12.4014 14.0294 11.7786 14.2002 11.1625 14.2002C10.9817 14.2002 10.8043 14.1902 10.6302 14.1701C10.4561 14.1433 10.2619 14.0997 10.0476 14.0395C9.83998 13.9792 9.68262 13.9323 9.57548 13.8989C9.47503 13.8587 9.29088 13.7884 9.02302 13.6879C8.75516 13.5875 8.5911 13.5272 8.53083 13.5071C7.87458 13.2727 7.28864 12.9948 6.77302 12.6734C5.92257 12.1444 5.03864 11.4212 4.12123 10.5038C3.20382 9.58636 2.48061 8.70243 1.95159 7.85198C1.63016 7.33636 1.35226 6.75042 1.11789 6.09417C1.0978 6.0339 1.03753 5.86984 0.937081 5.60198C0.836635 5.33412 0.766323 5.14997 0.726144 5.04952C0.692662 4.94238 0.645787 4.78502 0.585519 4.57743C0.525251 4.36314 0.481724 4.16894 0.454939 3.99484C0.434849 3.82073 0.424805 3.64328 0.424805 3.46247C0.424805 2.8464 0.595564 2.22363 0.937081 1.59417C1.31208 0.917829 1.66699 0.509346 2.00181 0.368721C2.16922 0.295061 2.3969 0.224748 2.68485 0.157784C2.97949 0.0908196 3.21722 0.0573374 3.39802 0.0573374C3.49177 0.0573374 3.56208 0.0673821 3.60896 0.0874715C3.72949 0.12765 3.90695 0.382115 4.14132 0.850865C4.21498 0.978096 4.31543 1.1589 4.44266 1.39327C4.56989 1.62765 4.68708 1.84194 4.79422 2.03613C4.90137 2.22363 5.00516 2.40109 5.10561 2.5685C5.1257 2.59528 5.18262 2.67899 5.27637 2.81961C5.37681 2.96024 5.45047 3.08078 5.49735 3.18122C5.54422 3.27497 5.56766 3.36872 5.56766 3.46247C5.56766 3.5964 5.47056 3.76381 5.27637 3.9647C5.08887 4.1656 4.88128 4.34975 4.6536 4.51716C4.43262 4.68457 4.22503 4.86202 4.03083 5.04952C3.84333 5.23703 3.74958 5.39104 3.74958 5.51158C3.74958 5.57185 3.76632 5.64886 3.7998 5.74261C3.83329 5.82966 3.86007 5.89662 3.88016 5.9435C3.90695 5.99037 3.95382 6.07073 4.02079 6.18457C4.09445 6.29841 4.13463 6.36203 4.14132 6.37542C4.65025 7.29283 5.23284 8.07966 5.88909 8.73591C6.54534 9.39216 7.33217 9.97475 8.24958 10.4837C8.26297 10.4904 8.32659 10.5306 8.44043 10.6042C8.55427 10.6712 8.63463 10.7181 8.6815 10.7448C8.72838 10.7649 8.79534 10.7917 8.88239 10.8252C8.97614 10.8587 9.05315 10.8754 9.11342 10.8754C9.23396 10.8754 9.38797 10.7817 9.57548 10.5942C9.76298 10.4 9.94043 10.1924 10.1078 9.9714C10.2753 9.74372 10.4594 9.53613 10.6603 9.34863C10.8612 9.15444 11.0286 9.05734 11.1625 9.05734C11.2563 9.05734 11.35 9.08078 11.4438 9.12765C11.5442 9.17453 11.6648 9.24819 11.8054 9.34863C11.946 9.44238 12.0297 9.4993 12.0565 9.51939C12.2239 9.61984 12.4014 9.72363 12.5889 9.83078C12.7831 9.93792 12.9974 10.0551 13.2317 10.1823C13.4661 10.3096 13.6469 10.41 13.7741 10.4837C14.2429 10.7181 14.4973 10.8955 14.5375 11.016C14.5576 11.0629 14.5677 11.1332 14.5677 11.227Z" fill="white"/>
</svg>
