<svg width="17" height="16" viewBox="0 0 17 16" fill="none" xmlns="http://www.w3.org/2000/svg">
<path d="M12.5656 9.44908C12.5656 9.11426 12.4986 8.80957 12.3647 8.53502C12.2374 8.25377 12.0767 8.02274 11.8825 7.84194C11.6883 7.66113 11.4439 7.49707 11.1493 7.34975C10.8546 7.20243 10.5767 7.08859 10.3156 7.00823C10.0611 6.92787 9.76981 6.85086 9.44169 6.7772L8.39704 6.53613C8.19615 6.48926 8.04883 6.45578 7.95508 6.43569C7.86133 6.4089 7.74414 6.36872 7.60352 6.31515C7.46289 6.26158 7.36244 6.20801 7.30218 6.15444C7.24191 6.10086 7.18499 6.03055 7.13142 5.9435C7.08454 5.85644 7.06111 5.756 7.06111 5.64216C7.06111 5.12653 7.54325 4.86872 8.50753 4.86872C8.79548 4.86872 9.05329 4.9089 9.28097 4.98926C9.50865 5.06961 9.68945 5.16671 9.82338 5.28055C9.95731 5.38769 10.0845 5.49819 10.2051 5.61203C10.3256 5.72586 10.4595 5.82296 10.6069 5.90332C10.7542 5.98368 10.9149 6.02386 11.089 6.02386C11.4037 6.02386 11.6549 5.91671 11.8424 5.70243C12.0366 5.48814 12.1336 5.23033 12.1336 4.92899C12.1336 4.56069 11.9461 4.22921 11.5711 3.93457C11.1961 3.63323 10.7207 3.40555 10.1448 3.25153C9.56892 3.09752 8.95954 3.02051 8.31669 3.02051C7.86133 3.02051 7.41936 3.07408 6.99079 3.18122C6.56222 3.28167 6.16044 3.43903 5.78544 3.65332C5.41713 3.86091 5.11914 4.1522 4.89146 4.5272C4.67048 4.89551 4.55999 5.32408 4.55999 5.81292C4.55999 6.2214 4.62361 6.57966 4.75084 6.88769C4.87807 7.18903 5.06557 7.44015 5.31334 7.64104C5.56111 7.84194 5.82896 8.006 6.11691 8.13323C6.40486 8.25377 6.74972 8.36091 7.15151 8.45466L8.61802 8.81627C9.2207 8.96359 9.5957 9.08412 9.74302 9.17787C9.95731 9.3118 10.0645 9.51269 10.0645 9.78055C10.0645 10.0417 9.93052 10.2593 9.66267 10.4335C9.39481 10.6009 9.04325 10.6846 8.60798 10.6846C8.26646 10.6846 7.95843 10.631 7.68387 10.5239C7.41602 10.4167 7.19838 10.2895 7.03097 10.1422C6.87026 9.98814 6.71959 9.83747 6.57896 9.69015C6.43834 9.53613 6.28432 9.40555 6.11691 9.29841C5.9495 9.19127 5.76869 9.1377 5.5745 9.1377C5.23968 9.1377 4.98521 9.23814 4.81111 9.43903C4.64369 9.63993 4.55999 9.89104 4.55999 10.1924C4.55999 10.8085 4.96847 11.3375 5.78544 11.7794C6.6024 12.2147 7.57673 12.4323 8.70843 12.4323C9.19727 12.4323 9.66602 12.3721 10.1147 12.2515C10.5633 12.1243 10.9718 11.9435 11.3401 11.7091C11.7151 11.4747 12.0131 11.1634 12.2341 10.775C12.4551 10.3799 12.5656 9.93792 12.5656 9.44908ZM16.2118 11.6288C16.2118 12.6935 15.8334 13.6009 15.0767 14.3509C14.3267 15.1076 13.4194 15.4859 12.3546 15.4859C11.4841 15.4859 10.7006 15.2181 10.0042 14.6823C9.48856 14.7895 8.98633 14.8431 8.49749 14.8431C7.5399 14.8431 6.62249 14.6556 5.74526 14.2806C4.87472 13.9122 4.12137 13.4134 3.48521 12.7839C2.85575 12.1477 2.35352 11.3944 1.97852 10.5239C1.61021 9.64662 1.42606 8.72921 1.42606 7.77162C1.42606 7.28278 1.47963 6.78055 1.58677 6.26493C1.05106 5.5685 0.783203 4.78502 0.783203 3.91448C0.783203 2.84975 1.1582 1.94238 1.9082 1.19238C2.6649 0.435686 3.57561 0.0573374 4.64035 0.0573374C5.51088 0.0573374 6.29436 0.325195 6.99079 0.860909C7.50642 0.753766 8.00865 0.700194 8.49749 0.700194C9.45508 0.700194 10.3691 0.887694 11.2397 1.26269C12.1169 1.631 12.8703 2.13323 13.4997 2.76939C14.1359 3.39886 14.6381 4.1522 15.0064 5.02944C15.3814 5.89997 15.5689 6.81403 15.5689 7.77162C15.5689 8.26046 15.5153 8.7627 15.4082 9.27832C15.9439 9.97475 16.2118 10.7582 16.2118 11.6288Z" fill="white"/>
</svg>
