<svg width="17" height="14" viewBox="0 0 17 14" fill="none" xmlns="http://www.w3.org/2000/svg">
<path d="M16.4139 1.86984C15.9653 2.52609 15.4229 3.08524 14.7867 3.54729C14.7934 3.64104 14.7967 3.78167 14.7967 3.96917C14.7967 4.8397 14.6695 5.71024 14.415 6.58078C14.1606 7.44461 13.7722 8.27497 13.2499 9.07185C12.7342 9.86872 12.1182 10.5752 11.4016 11.1913C10.6851 11.8006 9.82129 12.2895 8.81013 12.6578C7.79897 13.0194 6.71749 13.2002 5.56571 13.2002C3.75098 13.2002 2.09026 12.7147 0.583566 11.7437C0.817941 11.7705 1.0791 11.7839 1.36705 11.7839C2.87374 11.7839 4.21638 11.3218 5.39495 10.3977C4.69182 10.3843 4.06236 10.1701 3.50656 9.75488C2.95075 9.33301 2.56906 8.79729 2.36147 8.14774C2.58245 8.18122 2.78669 8.19796 2.97419 8.19796C3.26214 8.19796 3.54674 8.16113 3.82799 8.08747C3.07799 7.93345 2.45522 7.5618 1.95968 6.97252C1.47084 6.37653 1.22642 5.6868 1.22642 4.90332V4.86314C1.68178 5.11761 2.17062 5.25488 2.69294 5.27497C2.25098 4.98033 1.89941 4.59528 1.63825 4.11984C1.37709 3.64439 1.24651 3.12877 1.24651 2.57296C1.24651 1.98368 1.39383 1.43792 1.68848 0.935686C2.49874 1.93345 3.48312 2.73368 4.6416 3.33636C5.80678 3.93234 7.05232 4.26381 8.37821 4.33078C8.32464 4.07631 8.29785 3.82854 8.29785 3.58747C8.29785 2.69015 8.61258 1.92676 9.24205 1.29729C9.87821 0.661132 10.645 0.343052 11.5423 0.343052C12.4798 0.343052 13.27 0.68457 13.9128 1.36761C14.6427 1.22698 15.3291 0.96582 15.972 0.584124C15.7242 1.35421 15.2487 1.9502 14.5456 2.37207C15.1684 2.30511 15.7912 2.13769 16.4139 1.86984Z" fill="white"/>
</svg>
